<?xml version="1.0" encoding="UTF-8" standalone="no"?>
<!DOCTYPE svg PUBLIC "-//W3C//DTD SVG 1.1//EN" "http://www.w3.org/Graphics/SVG/1.1/DTD/svg11.dtd">
<svg xmlns="http://www.w3.org/2000/svg" xmlns:xl="http://www.w3.org/1999/xlink" version="1.1" xmlns:dc="http://purl.org/dc/elements/1.1/" viewBox="309.5 268.43458 117.28854 221.56542" width="117.28854" height="221.56542">
  <defs/>
  <metadata> Produced by OmniGraffle 7.10.2 
    <dc:date>2019-06-13 01:24:02 +0000</dc:date>
  </metadata>
  <g id="Canvas_1" stroke-opacity="1" fill-opacity="1" stroke="none" fill="none" stroke-dasharray="none">
    <title>Canvas 1</title>
    <g id="Canvas_1: Layer 1">
      <title>Layer 1</title>
      <g id="Group_40">
        <g id="Graphic_38">
          <path d="M 313.0327 340.20076 C 314.10157 344.709 315.7295 349.11163 317.9165 353.29826 L 368.14427 488 L 418.37204 353.29826 C 420.55904 349.11163 422.187 344.709 423.25585 340.20076 L 424.7885 336.09044 L 424.0713 336.09044 C 426.8492 318.7592 421.558 300.38556 408.19776 287.02537 C 386.0768 264.90432 350.21172 264.90432 328.0908 287.02537 C 314.73053 300.38556 309.43935 318.7592 312.21725 336.09044 L 311.50003 336.09044 Z" fill="white"/>
          <path d="M 313.0327 340.20076 C 314.10157 344.709 315.7295 349.11163 317.9165 353.29826 L 368.14427 488 L 418.37204 353.29826 C 420.55904 349.11163 422.187 344.709 423.25585 340.20076 L 424.7885 336.09044 L 424.0713 336.09044 C 426.8492 318.7592 421.558 300.38556 408.19776 287.02537 C 386.0768 264.90432 350.21172 264.90432 328.0908 287.02537 C 314.73053 300.38556 309.43935 318.7592 312.21725 336.09044 L 311.50003 336.09044 Z" stroke="black" stroke-linecap="round" stroke-linejoin="round" stroke-width="4"/>
        </g>
        <g id="Graphic_39">
          <ellipse cx="368.14427" cy="327.4007" rx="20.8724527101128" ry="20.2760969183953" fill="white"/>
          <ellipse cx="368.14427" cy="327.4007" rx="20.8724527101128" ry="20.2760969183953" stroke="black" stroke-linecap="round" stroke-linejoin="round" stroke-width="4"/>
        </g>
      </g>
    </g>
  </g>
</svg>
