<?xml version="1.0" encoding="UTF-8" standalone="no"?>
<!-- Created with Inkscape (http://www.inkscape.org/) -->

<svg
   width="1390.1517"
   height="850.67017"
   viewBox="0 0 367.81098 225.07315"
   version="1.1"
   id="svg1"
   xml:space="preserve"
   xmlns="http://www.w3.org/2000/svg"
   xmlns:svg="http://www.w3.org/2000/svg"><defs
     id="defs1" /><g
     id="layer8"
     style="display:inline"
     transform="translate(-24.341269,-26.869678)"><rect
       style="fill:#535a60;fill-opacity:1;stroke:none;stroke-width:0.264583;stroke-opacity:1"
       id="rect4"
       width="367.81097"
       height="157.43169"
       x="24.341269"
       y="94.511139" /></g><g
     id="g6"
     style="display:inline;fill:#000000;fill-opacity:1"
     transform="translate(-24.341269,-26.869678)"><path
       id="path6"
       style="fill:#535a60;fill-opacity:1;stroke:none;stroke-width:0.264583px;stroke-linecap:butt;stroke-linejoin:miter;stroke-opacity:1"
       d="m 78.927482,26.869678 -5.32939,15.5236 c 0,0 4.052462,6.712157 3.376021,23.235274 -0.442454,10.807612 -5.072309,21.907832 -9.298657,28.976009 -0.04733,0.07915 -0.06669,0.09253 -0.112138,0.167432 h 13.54801 c 0.02402,-0.05108 0.05907,-0.114214 0.08268,-0.164848 4.070838,-8.72938 6.790249,-18.513124 7.12618,-31.203263 C 88.974081,38.702474 78.92748,26.869678 78.92748,26.869678 Z" /></g><g
     id="g12"
     style="display:inline"
     transform="translate(-24.341269,-26.869678)"><path
       id="path12"
       style="display:inline;fill:#ffffff;fill-opacity:1;stroke:none;stroke-width:0.264583px;stroke-linecap:butt;stroke-linejoin:miter;stroke-opacity:1"
       d="m 67.200033,94.771993 c -2.436745,3.992085 -5.191681,7.964827 -8.246009,12.235427 -6.466198,10.39585 -26.083037,38.42115 -26.696045,60.28935 -0.613007,21.86819 14.675602,45.5096 36.151282,45.606 21.475682,0.0964 36.456309,-17.84017 36.485109,-35.81746 0.0288,-17.97727 -12.041716,-30.67936 -25.583966,-30.70096 -13.54225,-0.0217 -21.854719,14.78075 -21.691182,23.91585 0.163537,9.1351 5.45083,14.34899 5.45083,14.34899 0,0 0.0092,-7.22874 2.810681,-13.28704 2.318117,-5.01294 7.371512,-11.39561 17.656287,-11.18433 10.284776,0.21127 19.65143,17.12947 16.79639,27.02987 -2.855028,9.90041 -12.142167,18.65323 -28.475781,18.57613 -16.333613,-0.0771 -29.217022,-13.19594 -28.921232,-29.8111 0.29579,-16.61516 10.954309,-34.57783 18.020089,-46.71808 7.030543,-11.9255 14.549748,-22.76063 19.927983,-34.482647 z" /></g><g
     id="layer2"
     style="display:inline"
     transform="translate(-24.341269,-26.869678)"><path
       id="path5"
       style="fill:#ffffff;fill-opacity:1;stroke:none;stroke-width:0.264583px;stroke-linecap:butt;stroke-linejoin:miter;stroke-opacity:1"
       d="m 59.67491,94.771993 c 1.033881,8.420077 6.873441,29.012677 10.190076,45.025157 3.348108,16.16445 7.874024,39.89375 10.345105,51.39015 2.471082,11.49639 5.262584,18.68257 4.894275,30.70096 -0.368309,12.0184 -7.786965,18.32797 -13.681852,20.8008 -5.894886,2.47283 -14.22184,1.1614 -15.350484,0.66766 -1.128645,-0.49374 -1.763689,-1.41353 -1.890841,-1.77973 -0.127152,-0.3662 -8.713867,-3.91958 -14.595492,-7.31377 3.006344,5.17916 7.034653,13.30003 20.268531,13.43122 13.233877,0.13119 27.229692,-8.79198 27.409696,-24.1949 0.180004,-15.40293 -3.463165,-25.52558 -6.497794,-42.54573 -3.034629,-17.02014 -9.460257,-45.97215 -12.34705,-60.40044 -2.869919,-14.34396 -4.311302,-13.55394 -4.909778,-25.781377 z" /></g><g
     id="g4"
     style="display:inline"
     transform="translate(-24.341269,-26.869678)"><path
       id="path4"
       style="fill:#535a60;fill-opacity:1;stroke:none;stroke-width:0.264583px;stroke-linecap:butt;stroke-linejoin:miter;stroke-opacity:1"
       d="m 78.652563,27.005587 c -3.477008,4.002451 -8.106219,11.448544 -11.568286,17.352429 -3.462067,5.903886 -7.521339,19.312741 -8.119917,26.696045 -0.598579,7.383302 -0.283515,15.178517 0.667142,23.443013 0.0089,0.07769 0.0336,0.195018 0.04341,0.274919 h 3.834392 c -0.0035,-0.07189 -0.0089,-0.118919 -0.0124,-0.19172 -0.592022,-12.454583 -0.811213,-25.81762 1.473812,-34.53846 2.285025,-8.72084 3.995542,-11.636922 8.453748,-17.686259 3.56833,-6.271806 4.366972,-11.232308 5.228104,-15.349967 z" /></g><g
     id="layer4"
     style="display:inline"
     transform="translate(-24.341269,-26.869678)"><ellipse
       style="display:inline;fill:#ffffff;fill-opacity:1;stroke:none;stroke-width:0.250697;stroke-opacity:1"
       id="path2"
       cx="51.73732"
       cy="228.76266"
       rx="13.414767"
       ry="13.255821" /></g><g
     id="layer6"
     style="display:inline"
     transform="translate(-24.341269,-26.869678)"><text
       xml:space="preserve"
       style="font-style:normal;font-variant:normal;font-weight:normal;font-stretch:normal;font-size:65.2639px;line-height:0.83;font-family:Palatino;-inkscape-font-specification:Palatino;letter-spacing:0px;display:inline;fill:#ffffff;fill-opacity:1;stroke:none;stroke-width:0.264583"
       x="117.90857"
       y="167.47203"
       id="text3"><tspan
         id="tspan3"
         style="font-style:normal;font-variant:normal;font-weight:normal;font-stretch:normal;font-size:65.2639px;line-height:0.83;font-family:Palatino;-inkscape-font-specification:Palatino;letter-spacing:0px;fill:#ffffff;fill-opacity:1;stroke-width:0.264583"
         x="117.90857"
         y="167.47203">Del Valle</tspan><tspan
         style="font-style:normal;font-variant:normal;font-weight:normal;font-stretch:normal;font-size:65.2639px;line-height:0.83;font-family:Palatino;-inkscape-font-specification:Palatino;letter-spacing:0px;fill:#ffffff;fill-opacity:1;stroke-width:0.264583"
         x="117.90857"
         y="221.64107"
         id="tspan4">Fine Arts</tspan></text></g></svg>
