<?xml version="1.0" encoding="UTF-8" standalone="no"?>
<!DOCTYPE svg PUBLIC "-//W3C//DTD SVG 1.1//EN" "http://www.w3.org/Graphics/SVG/1.1/DTD/svg11.dtd">
<svg xmlns="http://www.w3.org/2000/svg" xmlns:xl="http://www.w3.org/1999/xlink" version="1.1" xmlns:dc="http://purl.org/dc/elements/1.1/" viewBox="86 619 124.3379 64" width="124.3379" height="64">
  <defs/>
  <metadata> Produced by OmniGraffle 7.10.2 
    <dc:date>2019-06-15 22:01:18 +0000</dc:date>
  </metadata>
  <g id="Logos" stroke-opacity="1" fill-opacity="1" stroke="none" fill="none" stroke-dasharray="none">
    <title>Logos</title>
    <g id="Logos: Layer 1">
      <title>Layer 1</title>
      <g id="Group_231">
        <g id="Line_207">
          <line x1="86.5" y1="658.616" x2="209.8379" y2="658.616" stroke="black" stroke-linecap="round" stroke-linejoin="round" stroke-width="1"/>
        </g>
        <g id="Graphic_212">
          <title>𝄞</title>
          <path d="M 92.388 655.992 C 92.388 653.9724 92.69377 652.11645 93.30533 650.424 C 93.91689 648.73155 94.74177 647.16 95.78 645.7093 C 96.81823 644.25866 98.03422 642.89334 99.428 641.6133 C 100.82178 640.3333 102.3151 639.06756 103.908 637.816 C 103.56666 635.9102 103.38178 633.8622 103.35333 631.672 C 103.35333 627.9173 103.92222 624.888 105.06 622.584 C 106.19778 620.19465 107.74799 619 109.71067 619 C 111.07601 619 112.17822 619.7609 113.01733 621.2827 C 113.85645 622.80445 114.276 625.016 114.276 627.9173 C 114.276 631.6151 113.33734 634.7582 111.46 637.3467 C 110.80577 638.22845 110.06623 639.1102 109.24133 639.992 C 108.41644 640.8738 107.47778 641.75555 106.42533 642.6373 C 106.88045 644.7991 107.30711 647.1031 107.70533 649.5493 C 110.35068 649.5493 112.49821 650.3742 114.148 652.024 C 115.82623 653.7022 116.66533 655.90665 116.66533 658.6373 C 116.66533 660.8276 116.132 662.7049 115.06533 664.2693 C 113.99866 665.8338 112.56934 666.9858 110.77733 667.7253 C 110.97645 669.0622 111.12578 670.3209 111.22533 671.5013 C 111.32489 672.6818 111.37467 673.8124 111.37467 674.8933 C 111.37467 677.7378 110.71334 679.8 109.39067 681.08 C 108.06799 682.36 106.32579 683 104.164 683 C 102.0591 683 100.3809 682.38845 99.12933 681.1653 C 97.87777 679.9138 97.252 678.5627 97.252 677.112 C 97.22356 675.832 97.572 674.77956 98.29733 673.9547 C 99.02267 673.1298 99.98266 672.7173 101.17733 672.7173 C 102.372 672.7173 103.29644 673.0871 103.95067 673.8267 C 104.60489 674.5662 104.932 675.4764 104.932 676.5573 C 104.932 677.1547 104.81822 677.688 104.59067 678.1573 C 104.36311 678.6267 104.05022 679.0107 103.652 679.3093 C 103.25378 679.608 102.79867 679.8071 102.28667 679.9067 C 101.77466 680.0062 101.22 679.9849 100.62267 679.8427 C 101.36223 680.9236 102.5711 681.464 104.24933 681.464 C 106.12668 681.464 107.54177 680.9093 108.49467 679.8 C 109.44756 678.6907 109.924 677.06934 109.924 674.936 C 109.924 673.9404 109.87422 672.888 109.77467 671.7787 C 109.67511 670.6693 109.54 669.4747 109.36933 668.1947 C 108.37377 668.4507 107.32134 668.5787 106.212 668.5787 C 104.22088 668.5787 102.38623 668.30845 100.708 667.768 C 99.02977 667.22755 97.57201 666.424 96.33467 665.3573 C 95.09733 664.2907 94.13023 662.9751 93.43333 661.4107 C 92.73644 659.8462 92.388 658.04 92.388 655.992 Z M 108.17467 660.728 C 107.86178 658.6231 107.52045 656.5467 107.15067 654.4987 C 105.84222 654.4987 104.75423 654.8969 103.88667 655.6933 C 103.01911 656.4898 102.58533 657.57066 102.58533 658.936 C 102.58533 659.8178 102.80578 660.6 103.24667 661.2827 C 103.68756 661.9653 104.30622 662.5058 105.10267 662.904 C 104.98889 663.2169 104.88933 663.4871 104.804 663.7147 C 103.52399 663.3733 102.41467 662.6622 101.476 661.5813 C 100.53733 660.5004 100.068 659.0071 100.068 657.1013 C 100.068 655.0249 100.80755 653.2471 102.28667 651.768 C 103.42445 650.6871 104.76133 649.9902 106.29733 649.6773 C 105.75689 646.8613 105.35867 644.8702 105.10267 643.704 C 103.93644 644.6427 102.80578 645.6169 101.71067 646.6267 C 100.61555 647.63645 99.64134 648.696 98.788 649.8053 C 97.93466 650.9147 97.252 652.0951 96.74 653.3467 C 96.228 654.5982 95.972 655.9493 95.972 657.4 C 95.972 659.02134 96.24222 660.4222 96.78267 661.6027 C 97.32311 662.7831 98.06977 663.7573 99.02267 664.5253 C 99.97556 665.2933 101.09199 665.8622 102.372 666.232 C 103.65201 666.6018 105.03155 666.7867 106.51067 666.7867 C 107.44934 666.7867 108.30266 666.6729 109.07067 666.4453 C 108.75778 664.568 108.45911 662.6622 108.17467 660.728 Z M 105.48667 636.7493 C 107.70534 635.128 109.31955 633.5422 110.32933 631.992 C 111.33912 630.4418 111.844 628.8418 111.844 627.192 C 111.844 626.39555 111.65911 625.6987 111.28933 625.1013 C 110.91955 624.504 110.37911 624.2053 109.668 624.2053 C 108.3311 624.2053 107.26445 625.1582 106.468 627.064 C 105.67155 628.9129 105.27333 631.1884 105.27333 633.8907 C 105.27333 634.77245 105.34444 635.7253 105.48667 636.7493 Z M 113.764 660.0027 C 113.764 659.2062 113.61467 658.4667 113.316 657.784 C 113.01733 657.1013 112.62622 656.5182 112.14267 656.0347 C 111.65911 655.5511 111.10445 655.1742 110.47867 654.904 C 109.85289 654.6338 109.21289 654.4987 108.55867 654.4987 C 108.84311 655.8356 109.14178 657.49955 109.45467 659.4907 C 109.73911 661.3111 110.052 663.4444 110.39333 665.8907 C 111.61645 665.23644 112.484 664.3547 112.996 663.2453 C 113.508 662.136 113.764 661.0551 113.764 660.0027 Z" fill="black"/>
        </g>
        <g id="Group_221">
          <title>Del Valle</title>
          <g id="Graphic_213">
            <path d="M 121.692 654.456 L 121.692 653.976 C 122.07867 653.756 122.402 653.556 122.662 653.376 C 122.702 652.9227 122.73533 652.2927 122.762 651.486 C 122.80867 650.11266 122.832 649.1593 122.832 648.626 L 122.832 644.546 C 122.832 643.8927 122.812 643.126 122.772 642.246 C 122.74533 641.6927 122.69867 641.3493 122.632 641.216 C 122.58533 641.1293 122.51533 641.066 122.422 641.026 C 122.202 640.9327 121.74534 640.8827 121.052 640.876 L 121.052 640.246 C 122.02534 640.286 122.88533 640.306 123.632 640.306 C 124.20534 640.306 124.987 640.2927 125.977 640.266 C 126.967 640.2393 127.73533 640.226 128.282 640.226 C 129.91534 640.226 131.22866 640.4343 132.222 640.851 C 133.21534 641.2677 134.05866 641.966 134.752 642.946 C 135.44534 643.926 135.792 645.12266 135.792 646.536 C 135.792 647.5493 135.62867 648.4993 135.302 649.386 C 134.97533 650.2727 134.532 651.0477 133.972 651.711 C 133.412 652.3743 132.812 652.8993 132.172 653.286 C 131.532 653.6727 130.86034 653.9643 130.157 654.161 C 129.45366 654.3577 128.48867 654.456 127.262 654.456 C 126.85533 654.456 126.30534 654.4427 125.612 654.416 C 124.70533 654.3893 124.112 654.376 123.832 654.376 C 123.42533 654.376 122.712 654.4027 121.692 654.456 Z M 124.792 653.366 C 125.52534 653.4927 126.29866 653.556 127.112 653.556 C 127.952 653.556 128.69366 653.4827 129.337 653.336 C 129.98034 653.1893 130.53033 652.9827 130.987 652.716 C 131.44367 652.4493 131.88533 652.056 132.312 651.536 C 132.73867 651.016 133.067 650.351 133.297 649.541 C 133.527 648.731 133.642 647.8927 133.642 647.026 C 133.642 645.786 133.42034 644.721 132.977 643.831 C 132.53366 642.941 131.86534 642.2593 130.972 641.786 C 130.07866 641.3127 128.85201 641.076 127.292 641.076 C 126.472 641.076 125.63867 641.1393 124.792 641.266 C 124.772 641.5927 124.75533 642.1727 124.742 643.006 L 124.702 644.456 L 124.702 648.446 L 124.732 651.546 C 124.73867 652.0193 124.75867 652.626 124.792 653.366 Z" fill="black"/>
          </g>
          <g id="Graphic_214">
            <path d="M 145.482 652.906 L 145.162 653.626 C 144.702 653.9127 144.36533 654.1027 144.152 654.196 C 143.83867 654.336 143.48034 654.4543 143.077 654.551 C 142.67366 654.6477 142.24867 654.696 141.802 654.696 C 140.922 654.696 140.12534 654.5127 139.412 654.146 C 138.69866 653.7793 138.14367 653.231 137.747 652.501 C 137.35033 651.771 137.152 650.916 137.152 649.936 C 137.152 649.1693 137.257 648.4777 137.467 647.861 C 137.677 647.2443 137.91533 646.7893 138.182 646.496 C 138.37533 646.2827 138.67533 646.0377 139.082 645.761 C 139.48867 645.4843 139.892 645.266 140.292 645.106 C 140.81867 644.886 141.38866 644.776 142.002 644.776 C 142.74867 644.776 143.42366 644.946 144.027 645.286 C 144.63034 645.626 145.072 646.0893 145.352 646.676 C 145.632 647.2627 145.772 647.926 145.772 648.666 C 145.772 648.8527 145.75867 649.0793 145.732 649.346 C 145.252 649.4393 144.822 649.4993 144.442 649.526 C 143.722 649.5793 143.002 649.606 142.282 649.606 L 139.072 649.606 C 139.08533 650.5593 139.25033 651.331 139.567 651.921 C 139.88367 652.511 140.32033 652.946 140.877 653.226 C 141.43367 653.506 142.012 653.646 142.612 653.646 C 143.01867 653.646 143.42366 653.581 143.827 653.451 C 144.23034 653.321 144.72866 653.0827 145.322 652.736 Z M 139.072 648.816 C 139.25867 648.836 139.612 648.856 140.132 648.876 C 141.12534 648.9093 141.80866 648.926 142.182 648.926 C 143.06867 648.926 143.652 648.9093 143.932 648.876 C 143.93867 648.716 143.942 648.5927 143.942 648.506 C 143.942 647.45266 143.72867 646.6793 143.302 646.186 C 142.87533 645.6927 142.30534 645.446 141.592 645.446 C 140.83866 645.446 140.232 645.716 139.772 646.256 C 139.312 646.796 139.07867 647.6493 139.072 648.816 Z" fill="black"/>
          </g>
          <g id="Graphic_215">
            <path d="M 146.962 654.456 L 146.962 653.886 L 147.902 653.876 C 148.04867 653.8693 148.16033 653.8443 148.237 653.801 C 148.31367 653.7577 148.372 653.7027 148.412 653.636 C 148.48533 653.5027 148.52867 653.266 148.542 652.926 C 148.54867 652.8393 148.572 651.8827 148.612 650.056 L 148.612 645.906 C 148.612 644.79266 148.592 643.6427 148.552 642.456 C 148.52533 641.656 148.48867 641.2093 148.442 641.116 C 148.40867 641.0493 148.35533 641.0027 148.282 640.976 C 148.182 640.9293 147.722 640.906 146.902 640.906 L 146.902 640.316 C 148.40867 640.1293 149.45533 639.896 150.042 639.616 C 150.12867 639.576 150.19533 639.556 150.242 639.556 C 150.28867 639.556 150.32533 639.571 150.352 639.601 C 150.37867 639.631 150.392 639.6727 150.392 639.726 C 150.392 639.7727 150.38533 639.8393 150.372 639.926 L 150.362 640.256 C 150.32867 641.44934 150.30867 642.466 150.302 643.306 L 150.282 644.866 L 150.282 650.056 C 150.31533 651.78934 150.33533 652.726 150.342 652.866 C 150.34867 653.1993 150.38867 653.4427 150.462 653.596 C 150.48867 653.656 150.52867 653.7077 150.582 653.751 C 150.63533 653.7943 150.71533 653.8293 150.822 653.856 C 150.86867 653.8627 151.23866 653.8727 151.932 653.886 L 151.932 654.456 C 151.02533 654.4027 150.22867 654.376 149.542 654.376 C 148.88866 654.376 148.02867 654.4027 146.962 654.456 Z" fill="black"/>
          </g>
          <g id="Graphic_216">
            <path d="M 164.412 654.556 C 164.212 653.976 163.79534 652.856 163.162 651.196 L 159.762 642.786 C 159.402 641.8927 159.17867 641.376 159.092 641.236 C 159.032 641.1493 158.94867 641.086 158.842 641.046 C 158.69533 640.9793 158.32867 640.926 157.742 640.886 L 157.742 640.246 C 158.94867 640.2993 159.83866 640.326 160.412 640.326 C 160.952 640.326 161.86866 640.2993 163.162 640.246 L 163.162 640.956 C 162.34866 640.9693 161.877 640.986 161.747 641.006 C 161.617 641.026 161.527 641.0643 161.477 641.121 C 161.427 641.1777 161.402 641.2427 161.402 641.316 C 161.402 641.3893 161.44867 641.5627 161.542 641.836 C 161.82867 642.7227 162.07867 643.436 162.292 643.976 L 165.422 651.876 L 168.032 645.326 C 168.412 644.386 168.77533 643.3627 169.122 642.256 C 169.26867 641.7827 169.342 641.4893 169.342 641.376 C 169.342 641.216 169.25533 641.1093 169.082 641.056 C 168.94867 641.0093 168.43534 640.9527 167.542 640.886 L 167.542 640.246 C 168.54867 640.286 169.30533 640.306 169.812 640.306 C 170.332 640.306 171.04866 640.286 171.962 640.246 L 171.962 640.886 C 171.45533 640.906 171.152 640.9393 171.052 640.986 C 170.952 641.0327 170.85867 641.126 170.772 641.266 C 170.712 641.366 170.46534 641.906 170.032 642.886 L 166.912 650.566 L 166.142 652.536 C 165.982 652.9293 165.852 653.2693 165.752 653.556 C 165.652 653.8427 165.542 654.176 165.422 654.556 Z" fill="black"/>
          </g>
          <g id="Graphic_217">
            <path d="M 172.612 647.606 L 172.082 647.466 C 172.08867 647.3127 172.092 647.1027 172.092 646.836 C 172.092 646.556 172.08867 646.3327 172.082 646.166 C 172.92867 645.6127 173.622 645.2393 174.162 645.046 C 174.57534 644.906 175.03866 644.836 175.552 644.836 C 176.312 644.836 176.952 644.9793 177.472 645.266 C 177.992 645.5527 178.37867 645.9627 178.632 646.496 C 178.80533 646.8693 178.892 647.3793 178.892 648.026 L 178.852 649.856 L 178.852 652.836 C 178.852 653.156 178.87867 653.386 178.932 653.526 C 178.972 653.626 179.03533 653.6993 179.122 653.746 C 179.18867 653.786 179.32867 653.8127 179.542 653.826 L 180.192 653.886 L 180.192 654.456 C 179.64533 654.4093 179.16534 654.386 178.752 654.386 C 178.352 654.386 177.81867 654.4093 177.152 654.456 L 177.202 652.696 C 175.842 653.7227 175.03533 654.301 174.782 654.431 C 174.52867 654.561 174.20867 654.626 173.822 654.626 C 173.01533 654.626 172.387 654.411 171.937 653.981 C 171.487 653.551 171.262 652.9793 171.262 652.266 C 171.262 651.806 171.34033 651.386 171.497 651.006 C 171.65367 650.626 171.842 650.3243 172.062 650.101 C 172.282 649.8777 172.50533 649.7127 172.732 649.606 C 173.11867 649.426 173.747 649.2327 174.617 649.026 C 175.487 648.8193 176.34866 648.666 177.202 648.566 C 177.20867 647.9327 177.132 647.4393 176.972 647.086 C 176.812 646.7327 176.542 646.4427 176.162 646.216 C 175.782 645.9893 175.31867 645.876 174.772 645.876 C 174.37866 645.876 174.03367 645.9293 173.737 646.036 C 173.44033 646.1427 173.25867 646.2327 173.192 646.306 L 173.012 646.666 C 172.832 647.066 172.69867 647.3793 172.612 647.606 Z M 177.202 649.176 C 176.33533 649.3227 175.59534 649.486 174.982 649.666 C 174.36866 649.846 173.93533 650.0327 173.682 650.226 C 173.52867 650.3393 173.39533 650.5093 173.282 650.736 C 173.10867 651.0693 173.022 651.4393 173.022 651.846 C 173.022 652.3393 173.15867 652.7243 173.432 653.001 C 173.70533 653.2777 174.08533 653.416 174.572 653.416 C 175.01867 653.416 175.46033 653.2877 175.897 653.031 C 176.33367 652.7743 176.76866 652.3893 177.202 651.876 Z" fill="black"/>
          </g>
          <g id="Graphic_218">
            <path d="M 181.192 654.456 L 181.192 653.886 L 182.132 653.876 C 182.27867 653.8693 182.39033 653.8443 182.467 653.801 C 182.54367 653.7577 182.602 653.7027 182.642 653.636 C 182.71533 653.5027 182.75867 653.266 182.772 652.926 C 182.77867 652.8393 182.802 651.8827 182.842 650.056 L 182.842 645.906 C 182.842 644.79266 182.822 643.6427 182.782 642.456 C 182.75533 641.656 182.71867 641.2093 182.672 641.116 C 182.63867 641.0493 182.58533 641.0027 182.512 640.976 C 182.412 640.9293 181.952 640.906 181.132 640.906 L 181.132 640.316 C 182.63867 640.1293 183.68533 639.896 184.272 639.616 C 184.35867 639.576 184.42533 639.556 184.472 639.556 C 184.51867 639.556 184.55533 639.571 184.582 639.601 C 184.60867 639.631 184.622 639.6727 184.622 639.726 C 184.622 639.7727 184.61533 639.8393 184.602 639.926 L 184.592 640.256 C 184.55867 641.44934 184.53867 642.466 184.532 643.306 L 184.512 644.866 L 184.512 650.056 C 184.54533 651.78934 184.56533 652.726 184.572 652.866 C 184.57867 653.1993 184.61867 653.4427 184.692 653.596 C 184.71867 653.656 184.75867 653.7077 184.812 653.751 C 184.86533 653.7943 184.94533 653.8293 185.052 653.856 C 185.09867 653.8627 185.46866 653.8727 186.162 653.886 L 186.162 654.456 C 185.25533 654.4027 184.45867 654.376 183.772 654.376 C 183.11866 654.376 182.25867 654.4027 181.192 654.456 Z" fill="black"/>
          </g>
          <g id="Graphic_219">
            <path d="M 187.152 654.456 L 187.152 653.886 L 188.092 653.876 C 188.23867 653.8693 188.35033 653.8443 188.427 653.801 C 188.50367 653.7577 188.562 653.7027 188.602 653.636 C 188.67533 653.5027 188.71867 653.266 188.732 652.926 C 188.73867 652.8393 188.762 651.8827 188.802 650.056 L 188.802 645.906 C 188.802 644.79266 188.782 643.6427 188.742 642.456 C 188.71533 641.656 188.67867 641.2093 188.632 641.116 C 188.59867 641.0493 188.54533 641.0027 188.472 640.976 C 188.372 640.9293 187.912 640.906 187.092 640.906 L 187.092 640.316 C 188.59867 640.1293 189.64533 639.896 190.232 639.616 C 190.31867 639.576 190.38533 639.556 190.432 639.556 C 190.47867 639.556 190.51533 639.571 190.542 639.601 C 190.56867 639.631 190.582 639.6727 190.582 639.726 C 190.582 639.7727 190.57533 639.8393 190.562 639.926 L 190.552 640.256 C 190.51867 641.44934 190.49867 642.466 190.492 643.306 L 190.472 644.866 L 190.472 650.056 C 190.50533 651.78934 190.52533 652.726 190.532 652.866 C 190.53867 653.1993 190.57867 653.4427 190.652 653.596 C 190.67867 653.656 190.71867 653.7077 190.772 653.751 C 190.82533 653.7943 190.90533 653.8293 191.012 653.856 C 191.05867 653.8627 191.42866 653.8727 192.122 653.886 L 192.122 654.456 C 191.21533 654.4027 190.41867 654.376 189.732 654.376 C 189.07866 654.376 188.21867 654.4027 187.152 654.456 Z" fill="black"/>
          </g>
          <g id="Graphic_220">
            <path d="M 201.442 652.906 L 201.122 653.626 C 200.662 653.9127 200.32533 654.1027 200.112 654.196 C 199.79867 654.336 199.44034 654.4543 199.037 654.551 C 198.63366 654.6477 198.20867 654.696 197.762 654.696 C 196.882 654.696 196.08534 654.5127 195.372 654.146 C 194.65866 653.7793 194.10367 653.231 193.707 652.501 C 193.31033 651.771 193.112 650.916 193.112 649.936 C 193.112 649.1693 193.217 648.4777 193.427 647.861 C 193.637 647.2443 193.87533 646.7893 194.142 646.496 C 194.33533 646.2827 194.63533 646.0377 195.042 645.761 C 195.44867 645.4843 195.852 645.266 196.252 645.106 C 196.77867 644.886 197.34866 644.776 197.962 644.776 C 198.70867 644.776 199.38366 644.946 199.987 645.286 C 200.59034 645.626 201.032 646.0893 201.312 646.676 C 201.592 647.2627 201.732 647.926 201.732 648.666 C 201.732 648.8527 201.71867 649.0793 201.692 649.346 C 201.212 649.4393 200.782 649.4993 200.402 649.526 C 199.682 649.5793 198.962 649.606 198.242 649.606 L 195.032 649.606 C 195.04533 650.5593 195.21033 651.331 195.527 651.921 C 195.84367 652.511 196.28033 652.946 196.837 653.226 C 197.39367 653.506 197.972 653.646 198.572 653.646 C 198.97867 653.646 199.38366 653.581 199.787 653.451 C 200.19034 653.321 200.68866 653.0827 201.282 652.736 Z M 195.032 648.816 C 195.21867 648.836 195.572 648.856 196.092 648.876 C 197.08534 648.9093 197.76866 648.926 198.142 648.926 C 199.02867 648.926 199.612 648.9093 199.892 648.876 C 199.89867 648.716 199.902 648.5927 199.902 648.506 C 199.902 647.45266 199.68867 646.6793 199.262 646.186 C 198.83533 645.6927 198.26534 645.446 197.552 645.446 C 196.79866 645.446 196.192 645.716 195.732 646.256 C 195.272 646.796 195.03867 647.6493 195.032 648.816 Z" fill="black"/>
          </g>
        </g>
        <g id="Group_230">
          <title>FINE ARTS</title>
          <g id="Graphic_222">
            <path d="M 121.9 663.274 L 121.9 662.89 C 122.508 662.914 123.024 662.926 123.448 662.926 C 123.748 662.926 124.286 662.918 125.062 662.902 C 125.838 662.886 126.362 662.878 126.634 662.878 C 126.926 662.878 127.193 662.881 127.435 662.887 C 127.677 662.893 127.896 662.904 128.092 662.92 C 127.992 663.26 127.928 663.866 127.9 664.738 L 127.522 664.738 C 127.486 664.254 127.436 663.882 127.372 663.622 C 127.164 663.55 126.907 663.497 126.601 663.463 C 126.295 663.429 125.94 663.412 125.536 663.412 C 125.132 663.412 124.714 663.436 124.282 663.484 C 124.258 663.7 124.242 663.902 124.234 664.09 C 124.23 664.198 124.22 664.656 124.204 665.464 L 124.204 666.796 C 124.652 666.808 125.048 666.814 125.392 666.814 C 125.9 666.814 126.306 666.788 126.61 666.736 C 126.726 666.716 126.801 666.683 126.835 666.637 C 126.869 666.591 126.906 666.422 126.946 666.13 L 126.994 665.758 L 127.372 665.758 L 127.33 667.126 L 127.372 668.596 L 126.994 668.596 L 126.952 668.212 C 126.908 667.776 126.876 667.542 126.856 667.51 C 126.824 667.454 126.748 667.412 126.628 667.384 C 126.4 667.332 125.884 667.306 125.08 667.306 C 124.796 667.306 124.504 667.314 124.204 667.33 L 124.204 668.542 C 124.204 669.086 124.212 669.616 124.228 670.132 C 124.236 670.512 124.263 670.738 124.309 670.81 C 124.355 670.882 124.43 670.935 124.534 670.969 C 124.638 671.003 124.926 671.024 125.398 671.032 L 125.398 671.416 C 124.89 671.384 124.384 671.368 123.88 671.368 C 123.428 671.368 122.768 671.384 121.9 671.416 L 121.9 671.032 C 122.372 671.024 122.66 671.003 122.764 670.969 C 122.868 670.935 122.94 670.888 122.98 670.828 C 123.028 670.748 123.058 670.554 123.07 670.246 C 123.074 670.162 123.082 669.594 123.094 668.542 L 123.094 665.764 C 123.094 665.22 123.088 664.688 123.076 664.168 C 123.064 663.788 123.035 663.563 122.989 663.493 C 122.943 663.423 122.869 663.371 122.767 663.337 C 122.665 663.303 122.376 663.282 121.9 663.274 Z" fill="black"/>
          </g>
          <g id="Graphic_223">
            <path d="M 134.67533 671.032 L 134.67533 671.416 C 133.82333 671.384 133.26333 671.368 132.99533 671.368 L 131.14133 671.416 L 131.14133 671.032 C 131.61334 671.024 131.90133 671.003 132.00533 670.969 C 132.10933 670.935 132.18133 670.888 132.22133 670.828 C 132.26933 670.748 132.29933 670.554 132.31133 670.246 C 132.31533 670.162 132.32333 669.594 132.33533 668.542 L 132.33533 665.764 C 132.33533 665.22 132.32933 664.688 132.31733 664.168 C 132.30533 663.788 132.27633 663.563 132.23033 663.493 C 132.18433 663.423 132.11033 663.371 132.00833 663.337 C 131.90633 663.303 131.61734 663.282 131.14133 663.274 L 131.14133 662.89 C 131.90534 662.918 132.49533 662.932 132.91133 662.932 C 133.31134 662.932 133.89933 662.918 134.67533 662.89 L 134.67533 663.274 C 134.19933 663.282 133.91033 663.303 133.80833 663.337 C 133.70633 663.371 133.63533 663.418 133.59533 663.478 C 133.54733 663.558 133.51733 663.752 133.50533 664.06 C 133.50133 664.14 133.49333 664.708 133.48133 665.764 L 133.48133 668.542 C 133.48133 669.086 133.48733 669.616 133.49933 670.132 C 133.51133 670.512 133.54033 670.738 133.58633 670.81 C 133.63233 670.882 133.70633 670.935 133.80833 670.969 C 133.91033 671.003 134.19933 671.024 134.67533 671.032 Z" fill="black"/>
          </g>
          <g id="Graphic_224">
            <path d="M 137.73067 671.416 L 137.73067 671.038 C 138.15067 671.034 138.42667 671.002 138.55867 670.942 C 138.61467 670.918 138.65467 670.88 138.67867 670.828 C 138.71867 670.748 138.74667 670.538 138.76267 670.198 C 138.78667 669.67 138.79867 669.214 138.79867 668.83 L 138.79867 663.94 C 138.79867 663.808 138.79067 663.722 138.77467 663.682 C 138.74267 663.61 138.67067 663.524 138.55867 663.424 C 138.48667 663.36 138.40367 663.319 138.30967 663.301 C 138.21567 663.283 138.00667 663.272 137.68267 663.268 L 137.68267 662.89 C 138.35067 662.906 138.77067 662.914 138.94267 662.914 C 139.23467 662.914 139.52467 662.906 139.81267 662.89 C 140.15267 663.334 140.40267 663.662 140.56267 663.874 L 141.80467 665.404 L 143.61667 667.588 C 144.19667 668.284 144.66266 668.832 145.01467 669.232 C 145.23867 669.496 145.42667 669.704 145.57867 669.856 L 145.57867 665.47 C 145.57867 665.078 145.56467 664.618 145.53667 664.09 C 145.52067 663.758 145.49467 663.552 145.45867 663.472 C 145.43067 663.42 145.38867 663.382 145.33267 663.358 C 145.20067 663.302 144.92667 663.272 144.51067 663.268 L 144.51067 662.89 C 144.98267 662.906 145.46066 662.914 145.94467 662.914 C 146.40067 662.914 146.81466 662.906 147.18667 662.89 L 147.18667 663.268 C 146.77066 663.272 146.49667 663.302 146.36467 663.358 C 146.30867 663.382 146.26867 663.422 146.24467 663.478 C 146.20467 663.554 146.17667 663.764 146.16067 664.108 C 146.13667 664.636 146.12467 665.09 146.12467 665.47 L 146.12467 668.356 C 146.12467 668.94 146.13467 670.03 146.15467 671.626 L 145.53667 671.446 L 145.39267 671.416 C 145.36867 671.408 145.34667 671.396 145.32667 671.38 C 145.29867 671.36 145.22267 671.28 145.09867 671.14 C 144.76667 670.764 144.52267 670.48 144.36667 670.288 L 143.59267 669.31 L 139.33867 664.228 L 139.33867 668.83 C 139.33867 669.222 139.35267 669.684 139.38067 670.216 C 139.39667 670.548 139.42267 670.752 139.45867 670.828 C 139.48667 670.884 139.52867 670.924 139.58467 670.948 C 139.71667 671.004 139.99066 671.034 140.40667 671.038 L 140.40667 671.416 C 140.05466 671.388 139.66667 671.374 139.24267 671.374 C 138.77866 671.374 138.27467 671.388 137.73067 671.416 Z" fill="black"/>
          </g>
          <g id="Graphic_225">
            <path d="M 150.416 671.416 L 150.416 671.038 C 150.836 671.034 151.112 671.002 151.244 670.942 C 151.3 670.918 151.34 670.88 151.364 670.828 C 151.404 670.748 151.432 670.538 151.448 670.198 C 151.472 669.67 151.484 669.214 151.484 668.83 L 151.484 665.764 C 151.484 665.22 151.478 664.688 151.466 664.168 C 151.454 663.788 151.425 663.563 151.379 663.493 C 151.333 663.423 151.259 663.371 151.157 663.337 C 151.055 663.303 150.766 663.282 150.29 663.274 L 150.29 662.89 L 152 662.926 L 153.812 662.896 C 154.68 662.884 155.31 662.878 155.702 662.878 C 156.098 662.878 156.472 662.9 156.824 662.944 C 156.76 663.172 156.716 663.37 156.692 663.538 C 156.684 663.574 156.648 663.99 156.584 664.786 L 156.206 664.786 C 156.21 664.378 156.184 664.006 156.128 663.67 C 155.908 663.578 155.666 663.516 155.402 663.484 C 154.954 663.428 154.506 663.4 154.058 663.4 C 153.962 663.4 153.748 663.408 153.416 663.424 C 153.084 663.44 152.846 663.454 152.702 663.466 C 152.686 663.91 152.674 664.326 152.666 664.714 L 152.642 666.742 C 153.11 666.766 153.54 666.778 153.932 666.778 C 154.408 666.778 154.814 666.756 155.15 666.712 C 155.278 666.696 155.36 666.664 155.396 666.616 C 155.432 666.568 155.464 666.404 155.492 666.124 L 155.528 665.704 L 155.888 665.704 L 155.888 665.818 L 155.858 667.066 L 155.888 668.464 L 155.468 668.464 L 155.45 668.056 C 155.442 667.76 155.415 667.576 155.369 667.504 C 155.323 667.432 155.236 667.382 155.108 667.354 C 154.88 667.306 154.438 667.282 153.782 667.282 C 153.514 667.282 153.134 667.292 152.642 667.312 C 152.622 667.712 152.612 668.306 152.612 669.094 C 152.612 669.834 152.622 670.396 152.642 670.78 C 153.218 670.824 153.864 670.846 154.58 670.846 C 155.088 670.846 155.45 670.83 155.666 670.798 C 155.882 670.766 156.082 670.712 156.266 670.636 C 156.314 670.512 156.362 670.344 156.41 670.132 C 156.498 669.776 156.556 669.508 156.584 669.328 L 156.98 669.328 C 156.876 670.136 156.824 670.806 156.824 671.338 C 156.48 671.39 156.062 671.416 155.57 671.416 L 151.988 671.368 C 151.936 671.368 151.412 671.384 150.416 671.416 Z" fill="black"/>
          </g>
          <g id="Graphic_226">
            <path d="M 165.10667 671.416 L 165.10667 671.008 C 165.42267 671.004 165.61967 670.991 165.69767 670.969 C 165.77567 670.947 165.84767 670.905 165.91367 670.843 C 165.97967 670.781 166.07467 670.62 166.19867 670.36 C 166.27067 670.212 166.53066 669.65 166.97867 668.674 L 168.47867 665.29 C 168.64267 664.918 168.99266 664.09 169.52867 662.806 L 169.91867 662.806 L 172.48067 668.824 C 172.89667 669.8 173.17267 670.412 173.30867 670.66 C 173.38467 670.8 173.46767 670.892 173.55767 670.936 C 173.64767 670.98 173.85067 671.004 174.16667 671.008 L 174.16667 671.416 C 173.54266 671.376 173.10667 671.356 172.85867 671.356 L 170.92667 671.416 L 170.92667 671.008 C 171.37467 671 171.64667 670.986 171.74267 670.966 C 171.83867 670.946 171.90367 670.917 171.93767 670.879 C 171.97167 670.841 171.98867 670.794 171.98867 670.738 C 171.98867 670.65 171.96067 670.536 171.90467 670.396 L 171.16667 668.56 L 167.69267 668.56 L 167.03867 670.102 C 166.92267 670.378 166.86467 670.58 166.86467 670.708 C 166.86467 670.764 166.88067 670.81 166.91267 670.846 C 166.95667 670.898 167.02467 670.934 167.11667 670.954 C 167.26467 670.986 167.52466 671.004 167.89667 671.008 L 167.89667 671.416 C 167.22066 671.38 166.71467 671.362 166.37867 671.362 C 165.99066 671.362 165.56667 671.38 165.10667 671.416 Z M 167.89667 668.05 L 170.92667 668.05 L 169.42667 664.432 Z" fill="black"/>
          </g>
          <g id="Graphic_227">
            <path d="M 177.114 663.274 L 177.114 662.89 C 177.27 662.894 177.508 662.9 177.828 662.908 L 178.98 662.938 C 179.208 662.938 179.562 662.93 180.042 662.914 C 180.666 662.89 181.028 662.878 181.128 662.878 C 181.892 662.878 182.449 662.946 182.799 663.082 C 183.149 663.218 183.42 663.439 183.612 663.745 C 183.804 664.051 183.9 664.384 183.9 664.744 C 183.9 665.08 183.81 665.414 183.63 665.746 C 183.45 666.078 183.189 666.354 182.847 666.574 C 182.505 666.794 182.06 666.964 181.512 667.084 C 181.612 667.224 181.848 667.536 182.22 668.02 L 183.732 670.012 C 184.164 670.568 184.416 670.878 184.488 670.942 C 184.524 670.97 184.56 670.99 184.596 671.002 C 184.656 671.022 184.788 671.032 184.992 671.032 L 184.992 671.416 C 184.688 671.392 184.422 671.38 184.194 671.38 C 183.958 671.38 183.668 671.392 183.324 671.416 C 183.064 671.116 182.628 670.53 182.016 669.658 C 181.676 669.174 181.376 668.77 181.116 668.446 C 180.696 667.91 180.296 667.424 179.916 666.988 L 179.976 666.808 C 180.184 666.82 180.342 666.826 180.45 666.826 C 181.178 666.826 181.73 666.654 182.106 666.31 C 182.482 665.966 182.67 665.512 182.67 664.948 C 182.67 664.456 182.508 664.065 182.184 663.775 C 181.86 663.485 181.37 663.34 180.714 663.34 C 180.302 663.34 179.898 663.402 179.502 663.526 C 179.486 663.742 179.474 663.944 179.466 664.132 C 179.462 664.188 179.448 664.77 179.424 665.878 L 179.424 668.542 C 179.424 669.086 179.432 669.616 179.448 670.132 C 179.456 670.512 179.483 670.738 179.529 670.81 C 179.575 670.882 179.65 670.935 179.754 670.969 C 179.858 671.003 180.146 671.024 180.618 671.032 L 180.618 671.416 C 180.05 671.384 179.528 671.368 179.052 671.368 C 178.668 671.368 178.022 671.384 177.114 671.416 L 177.114 671.032 C 177.586 671.024 177.874 671.003 177.978 670.969 C 178.082 670.935 178.154 670.888 178.194 670.828 C 178.242 670.748 178.272 670.554 178.284 670.246 C 178.288 670.162 178.296 669.594 178.308 668.542 L 178.308 665.764 C 178.308 665.22 178.302 664.688 178.29 664.168 C 178.278 663.788 178.249 663.563 178.203 663.493 C 178.157 663.423 178.083 663.371 177.981 663.337 C 177.879 663.303 177.59 663.282 177.114 663.274 Z" fill="black"/>
          </g>
          <g id="Graphic_228">
            <path d="M 187.68133 664.876 L 187.30933 664.876 C 187.30533 663.92 187.28533 663.258 187.24933 662.89 C 187.68534 662.906 188.36933 662.926 189.30133 662.95 C 190.05734 662.966 190.56133 662.974 190.81333 662.974 C 191.08533 662.974 191.71533 662.962 192.70333 662.938 C 193.41934 662.922 193.94133 662.906 194.26933 662.89 C 194.22133 663.338 194.18933 664 194.17333 664.876 L 193.78933 664.876 L 193.74133 664.3 C 193.70933 663.952 193.68733 663.754 193.67533 663.706 C 193.66333 663.658 193.64633 663.624 193.62433 663.604 C 193.60233 663.584 193.56933 663.568 193.52533 663.556 C 193.46933 663.544 193.26934 663.528 192.92533 663.508 C 192.58133 663.488 192.30933 663.478 192.10933 663.478 L 191.37733 663.478 C 191.33733 663.862 191.31733 664.38 191.31733 665.032 L 191.31733 668.542 C 191.31733 669.086 191.32333 669.616 191.33533 670.132 C 191.34733 670.512 191.37633 670.738 191.42233 670.81 C 191.46833 670.882 191.54233 670.935 191.64433 670.969 C 191.74633 671.003 192.03533 671.024 192.51133 671.032 L 192.51133 671.416 C 191.79533 671.384 191.25734 671.368 190.89733 671.368 C 190.74133 671.368 190.11734 671.384 189.02533 671.416 L 189.02533 671.032 C 189.50134 671.024 189.79133 671.003 189.89533 670.969 C 189.99933 670.935 190.06933 670.888 190.10533 670.828 C 190.15733 670.748 190.18933 670.554 190.20133 670.246 C 190.20133 670.162 190.20933 669.594 190.22533 668.542 L 190.22533 665.044 C 190.22533 664.876 190.22133 664.692 190.21333 664.492 L 190.17733 663.478 L 189.28333 663.478 C 188.76733 663.478 188.35733 663.498 188.05333 663.538 C 187.95733 663.55 187.89533 663.576 187.86733 663.616 C 187.82333 663.684 187.78333 663.902 187.74733 664.27 Z" fill="black"/>
          </g>
          <g id="Graphic_229">
            <path d="M 197.30067 671.122 C 197.36467 670.738 197.40267 670.116 197.41467 669.256 L 197.82267 669.256 C 197.84267 669.84 197.87567 670.185 197.92167 670.291 C 197.96767 670.397 198.07867 670.51 198.25467 670.63 C 198.43067 670.75 198.66667 670.857 198.96267 670.951 C 199.25867 671.045 199.54467 671.092 199.82067 671.092 C 200.22467 671.092 200.59666 670.999 200.93667 670.813 C 201.27667 670.627 201.52467 670.383 201.68067 670.081 C 201.83667 669.779 201.91467 669.456 201.91467 669.112 C 201.91467 668.848 201.87567 668.62 201.79767 668.428 C 201.71967 668.236 201.60067 668.081 201.44067 667.963 C 201.28067 667.845 201.08267 667.762 200.84667 667.714 C 200.69867 667.69 200.40267 667.65 199.95867 667.594 C 199.51466 667.538 199.13667 667.476 198.82467 667.408 C 198.40866 667.28 198.10267 667.13 197.90667 666.958 C 197.71067 666.786 197.55167 666.56 197.42967 666.28 C 197.30767 666 197.24667 665.698 197.24667 665.374 C 197.24667 664.902 197.36967 664.457 197.61567 664.039 C 197.86167 663.621 198.22566 663.296 198.70767 663.064 C 199.18967 662.832 199.71266 662.716 200.27667 662.716 C 200.61667 662.716 200.98766 662.761 201.38967 662.851 C 201.79167 662.941 202.16666 663.072 202.51467 663.244 C 202.45867 663.496 202.41867 663.731 202.39467 663.949 C 202.37067 664.167 202.35267 664.488 202.34067 664.912 L 201.93267 664.912 C 201.92067 664.296 201.90267 663.96 201.87867 663.904 C 201.77867 663.76 201.64267 663.63 201.47067 663.514 C 201.05866 663.282 200.62867 663.166 200.18067 663.166 C 199.60066 663.166 199.13767 663.343 198.79167 663.697 C 198.44566 664.051 198.27267 664.51 198.27267 665.074 C 198.27267 665.414 198.33467 665.677 198.45867 665.863 C 198.58267 666.049 198.80467 666.198 199.12467 666.31 C 199.34467 666.386 199.70466 666.457 200.20467 666.523 C 200.70467 666.589 201.15466 666.66 201.55467 666.736 C 201.93067 666.848 202.20867 666.981 202.38867 667.135 C 202.56867 667.289 202.71667 667.491 202.83267 667.741 C 202.94867 667.991 203.00667 668.284 203.00667 668.62 C 203.00667 669.416 202.67667 670.11 202.01667 670.702 C 201.35666 671.294 200.50267 671.59 199.45467 671.59 C 198.66266 671.59 197.94467 671.434 197.30067 671.122 Z" fill="black"/>
          </g>
        </g>
      </g>
    </g>
  </g>
</svg>
