<?xml version="1.0" encoding="UTF-8" standalone="no"?>
<!DOCTYPE svg PUBLIC "-//W3C//DTD SVG 1.1//EN" "http://www.w3.org/Graphics/SVG/1.1/DTD/svg11.dtd">
<svg xmlns:dc="http://purl.org/dc/elements/1.1/" version="1.1" xmlns="http://www.w3.org/2000/svg" xmlns:xl="http://www.w3.org/1999/xlink" viewBox="125.96059 17.577023 261.03972 217.42328" width="261.03972" height="217.42328">
  <defs/>
  <metadata> Produced by OmniGraffle 7.10.2 
    <dc:date>2019-06-08 03:50:17 +0000</dc:date>
  </metadata>
  <g id="Canvas_1" stroke-opacity="1" fill="none" fill-opacity="1" stroke="none" stroke-dasharray="none">
    <title>Canvas 1</title>
    <g id="Canvas_1: Layer 1">
      <title>Layer 1</title>
      <g id="Group_21">
        <g id="Graphic_19">
          <path d="M 146.57638 176.78574 C 150.52619 173.01045 155.8799 170.69167 161.77519 170.69168 C 173.92548 170.69165 183.7752 180.54137 183.77516 192.69166 C 183.77518 198.58696 181.4564 203.94066 177.6811 207.89047 L 194.83243 225.0418 C 196.78505 226.99442 199.95088 226.99442 201.9035 225.0418 L 333.42536 93.51993 C 335.378 91.56731 335.378 88.40149 333.42536 86.44887 L 316.27404 69.29754 C 312.2684 73.48835 306.6231 76.09872 300.36812 76.09871 C 288.21783 76.09874 278.3681 66.24902 278.36814 54.09873 C 278.36813 47.84374 280.9785 42.198447 285.1693 38.192814 L 268.01798 21.04149 C 266.06536 19.088868 262.89954 19.088868 260.9469 21.04149 L 129.42505 152.56335 C 127.47243 154.51597 127.47243 157.6818 129.42505 159.63442 Z" fill="white"/>
          <path d="M 146.57638 176.78574 C 150.52619 173.01045 155.8799 170.69167 161.77519 170.69168 C 173.92548 170.69165 183.7752 180.54137 183.77516 192.69166 C 183.77518 198.58696 181.4564 203.94066 177.6811 207.89047 L 194.83243 225.0418 C 196.78505 226.99442 199.95088 226.99442 201.9035 225.0418 L 333.42536 93.51993 C 335.378 91.56731 335.378 88.40149 333.42536 86.44887 L 316.27404 69.29754 C 312.2684 73.48835 306.6231 76.09872 300.36812 76.09871 C 288.21783 76.09874 278.3681 66.24902 278.36814 54.09873 C 278.36813 47.84374 280.9785 42.198447 285.1693 38.192814 L 268.01798 21.04149 C 266.06536 19.088868 262.89954 19.088868 260.9469 21.04149 L 129.42505 152.56335 C 127.47243 154.51597 127.47243 157.6818 129.42505 159.63442 Z" stroke="black" stroke-linecap="round" stroke-linejoin="round" stroke-width="4"/>
        </g>
        <g id="Line_18">
          <line x1="217.1063" y1="64.88211" x2="289.58474" y2="137.36055" stroke="#7f8080" stroke-linecap="round" stroke-linejoin="round" stroke-dasharray="4.0,16.0" stroke-width="4"/>
        </g>
      </g>
      <g id="Graphic_7">
        <path d="M 196.68686 183.27979 C 200.63667 179.5045 205.99037 177.18571 211.88567 177.18573 C 224.03596 177.1857 233.88568 187.03542 233.88564 199.1857 C 233.88566 205.081 231.56687 210.4347 227.79159 214.38452 L 244.9429 231.53584 C 246.89553 233.48846 250.06136 233.48846 252.01398 231.53584 L 383.53584 100.01398 C 385.48846 98.06136 385.48846 94.89553 383.53584 92.94291 L 366.3845 75.79159 C 362.3789 79.98239 356.7336 82.59277 350.4786 82.59275 C 338.3283 82.59278 328.4786 72.74306 328.47862 60.592776 C 328.4786 54.337785 331.089 48.69249 335.2798 44.68686 L 318.12846 27.535534 C 316.17584 25.582912 313.01 25.582912 311.0574 27.535534 L 179.53553 159.0574 C 177.58291 161.01002 177.58291 164.17584 179.53553 166.12846 Z" fill="white"/>
        <path d="M 196.68686 183.27979 C 200.63667 179.5045 205.99037 177.18571 211.88567 177.18573 C 224.03596 177.1857 233.88568 187.03542 233.88564 199.1857 C 233.88566 205.081 231.56687 210.4347 227.79159 214.38452 L 244.9429 231.53584 C 246.89553 233.48846 250.06136 233.48846 252.01398 231.53584 L 383.53584 100.01398 C 385.48846 98.06136 385.48846 94.89553 383.53584 92.94291 L 366.3845 75.79159 C 362.3789 79.98239 356.7336 82.59277 350.4786 82.59275 C 338.3283 82.59278 328.4786 72.74306 328.47862 60.592776 C 328.4786 54.337785 331.089 48.69249 335.2798 44.68686 L 318.12846 27.535534 C 316.17584 25.582912 313.01 25.582912 311.0574 27.535534 L 179.53553 159.0574 C 177.58291 161.01002 177.58291 164.17584 179.53553 166.12846 Z" stroke="black" stroke-linecap="round" stroke-linejoin="round" stroke-width="4"/>
      </g>
      <g id="Line_15">
        <line x1="267.21677" y1="71.376154" x2="339.6952" y2="143.8546" stroke="#7f8080" stroke-linecap="round" stroke-linejoin="round" stroke-dasharray="4.0,16.0" stroke-width="4"/>
      </g>
    </g>
  </g>
</svg>
